<svg width="500" height="73" viewBox="0 0 500 73" fill="none" xmlns="http://www.w3.org/2000/svg">
<path fill-rule="evenodd" clip-rule="evenodd" d="M26.2835 0C28.1961 0 29.7465 1.55043 29.7465 3.46298V11.6697C29.7465 13.5822 28.1961 15.1327 26.2835 15.1327H18.5956C16.6831 15.1327 15.1327 16.6831 15.1327 18.5956V69.1738C15.1327 71.0864 13.5822 72.6368 11.6697 72.6368H3.46297C1.55043 72.6368 0 71.0864 0 69.1738V18.5956C0 16.6831 1.55043 15.1327 3.46298 15.1327H11.1509C13.0634 15.1327 14.6138 13.5822 14.6138 11.6697V3.46298C14.6138 1.55043 16.1643 0 18.0768 0H26.2835ZM56.5489 0C58.4614 0 60.0119 1.55043 60.0119 3.46298V11.6697C60.0119 13.5822 61.5623 15.1327 63.4748 15.1327H71.1627C73.0752 15.1327 74.6257 16.6831 74.6257 18.5956V69.1738C74.6257 71.0864 73.0752 72.6368 71.1627 72.6368H62.956C61.0434 72.6368 59.493 71.0864 59.493 69.1738V18.5956C59.493 16.6831 57.9426 15.1327 56.03 15.1327H48.3422C46.4296 15.1327 44.8792 13.5822 44.8792 11.6697V3.46297C44.8792 1.55043 46.4296 0 48.3422 0H56.5489ZM41.4162 28.9683C43.3288 28.9683 44.8792 30.5187 44.8792 32.4313V54.9059C44.8792 56.8185 43.3288 58.3689 41.4162 58.3689H33.2095C31.2969 58.3689 29.7465 56.8185 29.7465 54.9059V32.4313C29.7465 30.5187 31.2969 28.9683 33.2095 28.9683H41.4162ZM156.248 16.5021H160.967L160.945 62.4396H169.243V8.63045H156.248V16.5021ZM133.49 10.2956H110.944V62.4745H134.742C144.885 62.4745 150.477 55.8721 150.477 47.4764C150.554 44.555 149.707 41.6883 148.066 39.3172C146.425 36.9461 144.082 35.2019 141.396 34.3531V34.1086C143.473 33.1915 145.234 31.642 146.45 29.6636C147.665 27.6852 148.278 25.3704 148.207 23.023C148.207 15.5123 143.04 10.2956 133.49 10.2956ZM139.83 24.5135C139.83 28.7288 137.247 31.5002 133.646 31.5002H119.343V17.5268H133.646C137.247 17.5268 139.83 20.2982 139.83 24.5135ZM142.101 46.9058C142.101 51.878 138.969 55.3015 134.664 55.3015H119.343V38.5917H134.664C138.969 38.5917 142.101 41.9337 142.101 46.9058ZM176.925 43.1563C176.925 31.3372 185.313 22.6155 196.899 22.6155C208.485 22.6155 216.939 31.2557 216.939 43.1563C216.939 55.057 208.563 63.6157 196.899 63.6157C185.235 63.6157 176.925 54.9755 176.925 43.1563ZM194.707 55.8721H199.18C204.269 55.8721 208.731 50.2478 208.731 43.1563C208.731 36.0648 204.258 30.3474 199.18 30.3474H194.707C189.619 30.3474 185.156 36.1696 185.156 43.1563C185.156 50.143 189.619 55.8721 194.707 55.8721ZM241.833 22.6155C230.326 22.6155 222.33 31.0111 222.33 43.0748C222.33 55.1385 230.236 63.6157 241.71 63.6855C251.149 63.6855 258.485 58.4688 259.604 48.4429H251.54C251.364 50.5185 250.445 52.4493 248.967 53.8532C247.488 55.2571 245.557 56.0316 243.556 56.0235H239.641C234.631 56.0235 230.561 50.2478 230.561 43.1447C230.561 36.0416 234.631 30.3358 239.641 30.3358H243.556C247.157 30.3358 250.679 32.6181 251.462 37.7533H259.525C258.351 27.5877 251.071 22.6155 241.833 22.6155ZM267.029 8.63045H275.249V38.3122H281.21L292.326 23.7217H301.72L288.02 41.7357L302.346 62.4396H292.483L280.505 45.3222H275.249V62.4396H267.029V8.63045ZM314.01 50.8184H306.104C306.406 59.2956 311.696 63.6157 322.599 63.604C333.872 63.604 338.96 59.2024 338.96 51.2143C338.96 45.0195 335.672 41.0254 328.549 40.1288L319.77 38.9643C316.404 38.4753 314.838 36.7635 314.838 34.2367C314.838 31.7098 316.482 29.7535 320.005 29.7535H324.713C328.784 29.7535 330.114 32.1174 330.506 35.4593H338.412C338.111 26.5746 332.318 22.5805 322.756 22.5805C312.769 22.5805 307.177 26.8191 307.177 34.6442C307.177 40.5945 310.465 45.1592 317.824 46.0558L326.525 47.2203C329.891 47.721 331.3 49.2697 331.3 51.8781C331.3 54.4864 329.578 56.4427 325.898 56.4427H320.72C316.437 56.4427 314.402 54.2419 314.01 50.8184ZM344.127 43.0748C344.127 31.0111 352.112 22.6155 363.631 22.6155C372.868 22.6155 380.149 27.5877 381.323 37.7533H373.26C372.477 32.6181 368.954 30.3358 365.353 30.3358H361.439C356.418 30.3358 352.347 36.0416 352.347 43.1447C352.347 50.2478 356.418 56.0235 361.439 56.0235H365.353C367.354 56.0316 369.285 55.2571 370.764 53.8532C372.243 52.4493 373.161 50.5185 373.338 48.4429H381.401C380.283 58.4688 372.946 63.6855 363.508 63.6855C352.045 63.6157 344.127 55.1385 344.127 43.0748ZM406.586 22.6155C395 22.6155 386.624 31.3372 386.624 43.1563C386.624 54.9755 394.91 63.6157 406.586 63.6157C418.261 63.6157 426.638 55.057 426.638 43.1563C426.638 31.2557 418.172 22.6155 406.586 22.6155ZM408.867 55.8721H404.416C399.328 55.8721 394.843 50.143 394.843 43.1563C394.843 36.1696 399.306 30.3474 404.394 30.3474H408.867C413.956 30.3474 418.429 36.0648 418.429 43.1563C418.429 50.2478 413.956 55.8721 408.867 55.8721ZM433.459 48.1285V23.7683H441.679V46.673C441.679 52.2973 444.419 55.6392 448.02 55.6392H452.493C456.329 55.6392 459.774 51.9712 459.774 46.673V23.7683H468.005V62.4862H460.009V57.1879C457.772 61.182 453.824 63.6273 447.796 63.6273C438.783 63.6157 433.459 58.1544 433.459 48.1285ZM481.682 31.3023V53.4268C481.682 59.2141 485.037 62.4745 491.053 62.4862H500V54.7426H493.424C490.763 54.7426 489.98 53.5199 489.98 50.9931V31.2673H499.687V23.7683H489.98V12.9156H481.682V23.7683H474.48V31.3023H481.682Z" fill="white"/>
</svg>
