<?xml version="1.0" standalone="no"?>
<!DOCTYPE svg PUBLIC "-//W3C//DTD SVG 20010904//EN"
 "http://www.w3.org/TR/2001/REC-SVG-20010904/DTD/svg10.dtd">
<svg version="1.0" xmlns="http://www.w3.org/2000/svg"
 width="512.000000pt" height="512.000000pt" viewBox="0 0 512.000000 512.000000"
 preserveAspectRatio="xMidYMid meet">

<g transform="translate(0.000000,512.000000) scale(0.100000,-0.100000)"
fill="#000000" stroke="none">
<path d="M2340 5109 c-681 -58 -1319 -395 -1757 -926 -394 -478 -603 -1094
-579 -1708 31 -836 450 -1585 1148 -2052 427 -285 974 -439 1493 -419 643 24
1233 274 1687 714 227 220 385 435 522 712 273 551 337 1183 181 1777 -49 186
-92 300 -185 488 -250 507 -657 912 -1165 1160 -182 89 -308 136 -480 180
-294 75 -575 99 -865 74z m380 -549 c443 -38 874 -224 1181 -508 48 -44 58
-58 47 -67 -7 -7 -102 -67 -211 -135 l-198 -123 -32 24 c-220 163 -403 248
-647 301 -151 32 -448 32 -596 0 -147 -32 -244 -66 -379 -133 -486 -240 -809
-724 -842 -1260 l-6 -99 240 -2 241 -3 -470 -338 c-259 -186 -476 -341 -484
-344 -12 -4 -14 52 -14 363 0 511 17 676 96 925 193 611 662 1091 1269 1299
259 88 537 123 805 100z m1850 -1672 c0 -529 -18 -691 -105 -953 -104 -315
-251 -552 -489 -791 -347 -348 -769 -543 -1266 -585 -536 -45 -1119 157 -1501
520 l-60 56 212 132 213 133 30 -25 c182 -145 414 -254 653 -307 83 -19 129
-22 303 -22 189 0 214 2 325 28 198 46 353 113 520 224 392 260 644 696 672
1163 l6 99 -240 2 -241 3 472 347 c259 190 477 347 484 347 9 1 12 -80 12
-371z m-2140 182 c68 -88 126 -160 130 -160 4 0 62 72 130 160 l123 160 259 0
c205 0 258 -3 251 -12 -4 -7 -117 -161 -250 -341 l-243 -328 250 -327 250
-327 -271 -3 c-186 -1 -276 1 -285 9 -7 6 -57 71 -111 145 -54 73 -100 133
-103 133 -3 0 -52 -64 -110 -142 l-105 -142 -279 -3 c-276 -2 -279 -2 -265 18
8 10 121 159 252 329 l237 310 -243 328 c-133 180 -246 334 -250 341 -7 9 46
12 251 12 l259 0 123 -160z"/>
</g>
</svg>
