<svg width="89" height="80" viewBox="0 0 89 80" fill="none" xmlns="http://www.w3.org/2000/svg">
<path fill-rule="evenodd" clip-rule="evenodd" d="M29.9049 2.09445C32.6975 -0.69815 37.2252 -0.69815 40.0178 2.09445L63.4039 25.4806L53.9231 34.9615L34.9614 15.9998L15.9997 34.9615L25.4805 44.4422L34.9614 34.9615L44.4422 44.4422L34.9614 53.9231L49.1826 68.1443C51.8007 70.7624 51.8007 75.0072 49.1826 77.6253C46.5646 80.2433 42.3199 80.2433 39.7018 77.6253L2.09443 40.0179C-0.698145 37.2253 -0.698145 32.6975 2.09443 29.9049L29.9049 2.09445Z" fill="#3CEAAA"/>
<path fill-rule="evenodd" clip-rule="evenodd" d="M48.8665 2.0944C51.6591 -0.6982 56.1868 -0.6981 58.9794 2.0945L86.7898 29.9049C89.5824 32.6975 89.5824 37.2252 86.7898 40.0178L49.4985 77.3091C46.7059 80.1017 42.1782 80.1017 39.3856 77.3091L34.9612 72.8848L53.9229 53.9231L34.9612 34.9614L44.4421 25.4805L63.4038 44.4422L72.8846 34.9614L44.4421 6.5188L48.8665 2.0944Z" fill="#03BCE4"/>
<path d="M44.4422 25.481L34.9614 16.0002L25.4806 25.481L34.9614 34.9618L44.4422 25.481Z" fill="#029ABB"/>
<path opacity="0.95" d="M63.4036 25.481L53.9228 16.0002L44.442 25.481L53.9228 34.9618L63.4036 25.481Z" fill="#3CEAAA"/>
</svg>
